<svg width="80" height="80" viewBox="0 0 80 80" fill="none" xmlns="http://www.w3.org/2000/svg">
<path d="M40 80C62.0914 80 80 62.0914 80 40C80 17.9086 62.0914 0 40 0C17.9086 0 0 17.9086 0 40C0 62.0914 17.9086 80 40 80Z" fill="black"/>
<path d="M39.9998 45.5272C43.0524 45.5272 45.5269 43.0526 45.5269 40C45.5269 36.9475 43.0524 34.4729 39.9998 34.4729C36.9472 34.4729 34.4727 36.9475 34.4727 40C34.4727 43.0526 36.9472 45.5272 39.9998 45.5272Z" fill="white"/>
<path d="M28.4074 39.6232C28.4074 38.044 28.6407 36.5187 29.0176 35.0471L6.71161 31.0633C5.95791 33.9166 5.50928 36.8955 5.50928 39.9821C5.50928 43.0687 5.95791 46.0476 6.71161 48.9009L29.0176 44.1813C28.6228 42.7277 28.4074 41.2024 28.4074 39.6052V39.6232Z" fill="white"/>
</svg>
